<?xml version="1.0" encoding="UTF-8" standalone="no"?>
<!DOCTYPE svg PUBLIC "-//W3C//DTD SVG 1.1//EN" "http://www.w3.org/Graphics/SVG/1.1/DTD/svg11.dtd">
<svg width="100%" height="100%" viewBox="0 0 26 30" version="1.1" xmlns="http://www.w3.org/2000/svg" xmlns:xlink="http://www.w3.org/1999/xlink" xml:space="preserve" xmlns:serif="http://www.serif.com/" style="fill-rule:evenodd;clip-rule:evenodd;stroke-linejoin:round;stroke-miterlimit:2;">
    <g transform="matrix(1,0,0,1,-64.6109,-23.2094)">
        <g transform="matrix(1,0,0,1,15.5495,11.8397)">
            <g transform="matrix(0.707107,0.707107,-0.707107,0.707107,37.0817,-37.4373)">
                <path d="M63.732,13.298C63.732,12.775 63.507,12.277 63.114,11.931C62.721,11.585 62.198,11.425 61.679,11.492C54.548,12.509 49.058,18.635 49.058,26.043C49.058,34.141 55.633,40.716 63.732,40.716C71.14,40.716 77.266,35.226 78.263,28.093C78.329,27.58 78.171,27.062 77.829,26.673C77.487,26.285 76.994,26.062 76.477,26.062C76.454,26.043 76.431,26.043 76.409,26.043C75.497,26.043 74.726,26.718 74.605,27.622C73.857,32.953 69.272,37.048 63.732,37.048C57.658,37.048 52.727,32.117 52.727,26.043C52.727,20.502 56.821,15.918 62.15,15.151C63.044,15.032 63.712,14.269 63.712,13.366C63.732,13.343 63.732,13.321 63.732,13.298Z"/>
            </g>
            <g transform="matrix(0.353553,0.353553,-0.353895,0.353895,50.4156,-5.71323)">
                <path d="M63.732,13.322C63.732,12.793 63.508,12.289 63.115,11.935C62.722,11.581 62.197,11.411 61.671,11.466C54.545,12.512 49.058,18.637 49.058,26.043C49.058,34.141 55.633,40.716 63.732,40.716C71.138,40.716 77.263,35.228 78.262,28.097C78.316,27.584 78.15,27.073 77.804,26.69C77.459,26.307 76.967,26.088 76.451,26.088C76.44,26.043 76.429,26.043 76.417,26.043C75.469,26.044 74.672,26.755 74.565,27.696C73.813,32.993 69.246,37.048 63.732,37.048C57.658,37.048 52.727,32.117 52.727,26.043C52.727,20.529 56.781,15.963 62.072,15.162C62.989,15.058 63.682,14.282 63.682,13.359C63.732,13.347 63.732,13.334 63.732,13.322Z"/>
            </g>
            <g transform="matrix(6.12323e-17,-1,4.91674,3.01063e-16,-56.9776,96.1941)">
                <path d="M71.068,24.734C71.068,24.685 70.974,24.639 70.805,24.604C70.636,24.57 70.407,24.551 70.169,24.551L70.134,24.551C69.895,24.551 69.666,24.57 69.498,24.604C69.329,24.639 69.234,24.685 69.234,24.734L69.234,25.86C69.234,25.908 69.329,25.955 69.498,25.989C69.666,26.024 69.895,26.043 70.134,26.043L70.169,26.043C70.407,26.043 70.636,26.024 70.805,25.989C70.974,25.955 71.068,25.908 71.068,25.86L71.068,24.734Z"/>
            </g>
        </g>
    </g>
</svg>
